# Blender 5.1.0
# www.blender.org
mtllib arrow.mtl
o Cylinder
v 0.000000 -0.000000 -0.018692
v 0.000000 0.934580 -0.018692
v 0.003647 -0.000000 -0.018333
v 0.003647 0.934580 -0.018333
v 0.007153 -0.000000 -0.017269
v 0.007153 0.934580 -0.017269
v 0.010384 -0.000000 -0.015542
v 0.010384 0.934580 -0.015542
v 0.013217 -0.000000 -0.013217
v 0.013217 0.934580 -0.013217
v 0.015542 -0.000000 -0.010384
v 0.015542 0.934580 -0.010385
v 0.017269 -0.000000 -0.007153
v 0.017269 0.934580 -0.007153
v 0.018333 -0.000000 -0.003647
v 0.018333 0.934580 -0.003647
v 0.018692 0.000000 0.000000
v 0.018692 0.934580 -0.000000
v 0.018333 0.000000 0.003647
v 0.018333 0.934580 0.003646
v 0.017269 0.000000 0.007153
v 0.017269 0.934580 0.007153
v 0.015542 0.000000 0.010384
v 0.015542 0.934580 0.010384
v 0.013217 0.000000 0.013217
v 0.013217 0.934580 0.013217
v 0.010384 0.000000 0.015542
v 0.010384 0.934580 0.015541
v 0.007153 0.000000 0.017269
v 0.007153 0.934580 0.017269
v 0.003647 0.000000 0.018333
v 0.003647 0.934580 0.018332
v 0.000000 0.000000 0.018692
v 0.000000 0.934580 0.018692
v -0.003647 0.000000 0.018333
v -0.003647 0.934580 0.018332
v -0.007153 0.000000 0.017269
v -0.007153 0.934580 0.017269
v -0.010384 0.000000 0.015542
v -0.010384 0.934580 0.015541
v -0.013217 0.000000 0.013217
v -0.013217 0.934580 0.013217
v -0.015542 0.000000 0.010384
v -0.015542 0.934580 0.010384
v -0.017269 0.000000 0.007153
v -0.017269 0.934580 0.007153
v -0.018333 0.000000 0.003647
v -0.018333 0.934580 0.003646
v -0.018692 0.000000 0.000000
v -0.018692 0.934580 -0.000000
v -0.018333 -0.000000 -0.003647
v -0.018333 0.934580 -0.003647
v -0.017269 -0.000000 -0.007153
v -0.017269 0.934580 -0.007153
v -0.015542 -0.000000 -0.010384
v -0.015542 0.934580 -0.010385
v -0.013217 -0.000000 -0.013217
v -0.013217 0.934580 -0.013217
v -0.010384 -0.000000 -0.015542
v -0.010384 0.934580 -0.015542
v -0.007153 -0.000000 -0.017269
v -0.007153 0.934580 -0.017269
v -0.003647 -0.000000 -0.018333
v -0.003647 0.934580 -0.018333
v 0.007293 0.934580 -0.036665
v 0.000000 0.934580 -0.037383
v 0.014306 0.934580 -0.034538
v 0.020769 0.934580 -0.031083
v 0.026434 0.934580 -0.026434
v 0.031083 0.934580 -0.020769
v 0.034538 0.934580 -0.014306
v 0.036665 0.934580 -0.007293
v 0.037383 0.934580 -0.000000
v 0.036665 0.934580 0.007293
v 0.034538 0.934580 0.014306
v 0.031083 0.934580 0.020769
v 0.026434 0.934580 0.026434
v 0.020769 0.934580 0.031083
v 0.014306 0.934580 0.034538
v 0.007293 0.934580 0.036665
v 0.000000 0.934580 0.037383
v -0.007293 0.934580 0.036665
v -0.014306 0.934580 0.034538
v -0.020769 0.934580 0.031083
v -0.026434 0.934580 0.026434
v -0.031083 0.934580 0.020769
v -0.034538 0.934580 0.014306
v -0.036665 0.934580 0.007293
v -0.037383 0.934580 -0.000000
v -0.036665 0.934580 -0.007293
v -0.034538 0.934580 -0.014306
v -0.031083 0.934580 -0.020769
v -0.026434 0.934580 -0.026434
v -0.020769 0.934580 -0.031083
v -0.014306 0.934580 -0.034538
v -0.007293 0.934580 -0.036665
v 0.000000 1.000000 -0.000000
vn -0.0000 -0.0188 -0.9998
vn -0.0000 -0.0213 -0.9998
vn 0.1951 -0.0213 -0.9805
vn 0.1951 -0.0188 -0.9806
vn 0.3824 -0.0213 -0.9237
vn 0.3826 -0.0188 -0.9237
vn 0.5555 -0.0213 -0.8313
vn 0.5555 -0.0188 -0.8313
vn 0.7070 -0.0213 -0.7069
vn 0.7069 -0.0188 -0.7070
vn 0.8313 -0.0213 -0.5554
vn 0.8313 -0.0188 -0.5555
vn 0.9237 -0.0213 -0.3825
vn 0.9237 -0.0188 -0.3827
vn 0.9806 -0.0213 -0.1950
vn 0.9806 -0.0188 -0.1951
vn 0.9998 -0.0213 -0.0003
vn 0.9998 -0.0188 -0.0000
vn 0.9805 -0.0213 0.1951
vn 0.9806 -0.0188 0.1951
vn 0.9236 -0.0213 0.3827
vn 0.9237 -0.0188 0.3826
vn 0.8313 -0.0213 0.5555
vn 0.8313 -0.0188 0.5555
vn 0.7069 -0.0213 0.7070
vn 0.7070 -0.0188 0.7069
vn 0.5554 -0.0213 0.8313
vn 0.5555 -0.0188 0.8313
vn 0.3824 -0.0213 0.9237
vn 0.3827 -0.0188 0.9237
vn 0.1950 -0.0213 0.9806
vn 0.1951 -0.0188 0.9806
vn 0.0003 -0.0213 0.9998
vn -0.0000 -0.0188 0.9998
vn -0.1951 -0.0213 0.9805
vn -0.1951 -0.0188 0.9806
vn -0.3824 -0.0213 0.9237
vn -0.3826 -0.0188 0.9237
vn -0.5555 -0.0213 0.8313
vn -0.5555 -0.0188 0.8313
vn -0.7070 -0.0213 0.7069
vn -0.7069 -0.0188 0.7070
vn -0.8313 -0.0213 0.5554
vn -0.8313 -0.0188 0.5555
vn -0.9237 -0.0213 0.3825
vn -0.9237 -0.0188 0.3827
vn -0.9806 -0.0213 0.1950
vn -0.9806 -0.0188 0.1951
vn -0.9998 -0.0213 0.0003
vn -0.9998 -0.0188 -0.0000
vn -0.9805 -0.0213 -0.1951
vn -0.9806 -0.0188 -0.1951
vn -0.9236 -0.0213 -0.3827
vn -0.9237 -0.0188 -0.3826
vn -0.8313 -0.0213 -0.5555
vn -0.8313 -0.0188 -0.5555
vn -0.7069 -0.0213 -0.7070
vn -0.7070 -0.0188 -0.7069
vn -0.5554 -0.0213 -0.8313
vn -0.5555 -0.0188 -0.8313
vn -0.3824 -0.0213 -0.9237
vn -0.3827 -0.0188 -0.9237
vn 0.9239 -0.0003 0.3827
vn 0.8314 -0.0003 0.5556
vn -0.1950 -0.0213 -0.9806
vn -0.1951 -0.0188 -0.9806
vn -0.5556 -0.0003 0.8315
vn -0.7071 -0.0003 0.7071
vn -0.7071 -0.0003 -0.7071
vn -0.5555 -0.0003 -0.8315
vn 0.9239 -0.0003 -0.3827
vn 0.9808 -0.0003 -0.1950
vn 0.1951 -0.0003 0.9808
vn 0.0002 -0.0003 1.0000
vn -1.0000 -0.0003 -0.0000
vn -0.9808 -0.0003 -0.1951
vn 0.3827 -0.0003 -0.9239
vn 0.5556 -0.0003 -0.8314
vn 0.7071 -0.0003 0.7071
vn -0.8315 -0.0003 0.5555
vn -0.3826 -0.0003 -0.9239
vn 1.0000 -0.0003 -0.0001
vn -0.1952 -0.0003 0.9808
vn -0.9239 -0.0003 -0.3827
vn 0.7071 -0.0003 -0.7071
vn 0.5555 -0.0003 0.8315
vn -0.9238 -0.0003 0.3828
vn -0.1952 -0.0003 -0.9808
vn 0.9808 -0.0003 0.1951
vn -0.3827 -0.0003 0.9239
vn -0.8314 -0.0003 -0.5556
vn 0.8315 -0.0003 -0.5555
vn 0.3826 -0.0003 0.9239
vn -0.9808 -0.0003 0.1950
vn -0.0000 -0.0003 -1.0000
vn 0.1952 -0.0003 -0.9808
vn -0.0000 1.0000 -0.0000
vt 1.000000 0.500000
vt 1.000000 1.000000
vt 0.968750 1.000000
vt 0.968750 0.500000
vt 0.937500 1.000000
vt 0.937500 0.500000
vt 0.906250 1.000000
vt 0.906250 0.500000
vt 0.875000 1.000000
vt 0.875000 0.500000
vt 0.843750 1.000000
vt 0.843750 0.500000
vt 0.812500 1.000000
vt 0.812500 0.500000
vt 0.781250 1.000000
vt 0.781250 0.500000
vt 0.750000 1.000000
vt 0.750000 0.500000
vt 0.718750 1.000000
vt 0.718750 0.500000
vt 0.687500 1.000000
vt 0.687500 0.500000
vt 0.656250 1.000000
vt 0.656250 0.500000
vt 0.625000 1.000000
vt 0.625000 0.500000
vt 0.593750 1.000000
vt 0.593750 0.500000
vt 0.562500 1.000000
vt 0.562500 0.500000
vt 0.531250 1.000000
vt 0.531250 0.500000
vt 0.500000 1.000000
vt 0.500000 0.500000
vt 0.468750 1.000000
vt 0.468750 0.500000
vt 0.437500 1.000000
vt 0.437500 0.500000
vt 0.406250 1.000000
vt 0.406250 0.500000
vt 0.375000 1.000000
vt 0.375000 0.500000
vt 0.343750 1.000000
vt 0.343750 0.500000
vt 0.312500 1.000000
vt 0.312500 0.500000
vt 0.281250 1.000000
vt 0.281250 0.500000
vt 0.250000 1.000000
vt 0.250000 0.500000
vt 0.218750 1.000000
vt 0.218750 0.500000
vt 0.187500 1.000000
vt 0.187500 0.500000
vt 0.156250 1.000000
vt 0.156250 0.500000
vt 0.125000 1.000000
vt 0.125000 0.500000
vt 0.093750 1.000000
vt 0.093750 0.500000
vt 0.062500 1.000000
vt 0.062500 0.500000
vt 0.031250 1.000000
vt 0.031250 0.500000
vt 0.000000 1.000000
vt 0.000000 0.500000
vt 0.750000 0.490000
vt 0.796822 0.485388
vt 0.841844 0.471731
vt 0.883337 0.449553
vt 0.919706 0.419706
vt 0.949553 0.383337
vt 0.971731 0.341844
vt 0.985388 0.296822
vt 0.990000 0.250000
vt 0.985388 0.203178
vt 0.971731 0.158156
vt 0.949553 0.116663
vt 0.919706 0.080294
vt 0.883337 0.050447
vt 0.841844 0.028269
vt 0.796822 0.014612
vt 0.750000 0.010000
vt 0.703178 0.014612
vt 0.658156 0.028269
vt 0.616663 0.050447
vt 0.580294 0.080294
vt 0.550447 0.116663
vt 0.528269 0.158156
vt 0.514612 0.203178
vt 0.510000 0.250000
vt 0.514612 0.296822
vt 0.528269 0.341844
vt 0.550447 0.383337
vt 0.580294 0.419706
vt 0.616663 0.449553
vt 0.658156 0.471731
vt 0.703178 0.485388
s 1
f 1/1/1 2/2/2 4/3/3 3/4/4
f 3/4/4 4/3/3 6/5/5 5/6/6
f 5/6/6 6/5/5 8/7/7 7/8/8
f 7/8/8 8/7/7 10/9/9 9/10/10
f 9/10/10 10/9/9 12/11/11 11/12/12
f 11/12/12 12/11/11 14/13/13 13/14/14
f 13/14/14 14/13/13 16/15/15 15/16/16
f 15/16/16 16/15/15 18/17/17 17/18/18
f 17/18/18 18/17/17 20/19/19 19/20/20
f 19/20/20 20/19/19 22/21/21 21/22/22
f 21/22/22 22/21/21 24/23/23 23/24/24
f 23/24/24 24/23/23 26/25/25 25/26/26
f 25/26/26 26/25/25 28/27/27 27/28/28
f 27/28/28 28/27/27 30/29/29 29/30/30
f 29/30/30 30/29/29 32/31/31 31/32/32
f 31/32/32 32/31/31 34/33/33 33/34/34
f 33/34/34 34/33/33 36/35/35 35/36/36
f 35/36/36 36/35/35 38/37/37 37/38/38
f 37/38/38 38/37/37 40/39/39 39/40/40
f 39/40/40 40/39/39 42/41/41 41/42/42
f 41/42/42 42/41/41 44/43/43 43/44/44
f 43/44/44 44/43/43 46/45/45 45/46/46
f 45/46/46 46/45/45 48/47/47 47/48/48
f 47/48/48 48/47/47 50/49/49 49/50/50
f 49/50/50 50/49/49 52/51/51 51/52/52
f 51/52/52 52/51/51 54/53/53 53/54/54
f 53/54/54 54/53/53 56/55/55 55/56/56
f 55/56/56 56/55/55 58/57/57 57/58/58
f 57/58/58 58/57/57 60/59/59 59/60/60
f 59/60/60 60/59/59 62/61/61 61/62/62
f 24/23/23 22/21/21 75/21/63 76/23/64
f 61/62/62 62/61/61 64/63/65 63/64/66
f 63/64/66 64/63/65 2/65/2 1/66/1
f 1/67/1 3/68/4 5/69/6 7/70/8 9/71/10 11/72/12 13/73/14 15/74/16 17/75/18 19/76/20 21/77/22 23/78/24 25/79/26 27/80/28 29/81/30 31/82/32 33/83/34 35/84/36 37/85/38 39/86/40 41/87/42 43/88/44 45/89/46 47/90/48 49/91/50 51/92/52 53/93/54 55/94/56 57/95/58 59/96/60 61/97/62 63/98/66
f 42/41/41 40/39/39 84/39/67 85/41/68
f 60/59/59 58/57/57 93/57/69 94/59/70
f 16/15/15 14/13/13 71/13/71 72/15/72
f 34/33/33 32/31/31 80/31/73 81/33/74
f 52/51/51 50/49/49 89/49/75 90/51/76
f 8/7/7 6/5/5 67/5/77 68/7/78
f 26/25/25 24/23/23 76/23/64 77/25/79
f 44/43/43 42/41/41 85/41/68 86/43/80
f 62/61/61 60/59/59 94/59/70 95/61/81
f 18/17/17 16/15/15 72/15/72 73/17/82
f 36/35/35 34/33/33 81/33/74 82/35/83
f 54/53/53 52/51/51 90/51/76 91/53/84
f 10/9/9 8/7/7 68/7/78 69/9/85
f 28/27/27 26/25/25 77/25/79 78/27/86
f 46/45/45 44/43/43 86/43/80 87/45/87
f 64/63/65 62/61/61 95/61/81 96/63/88
f 20/19/19 18/17/17 73/17/82 74/19/89
f 38/37/37 36/35/35 82/35/83 83/37/90
f 56/55/55 54/53/53 91/53/84 92/55/91
f 12/11/11 10/9/9 69/9/85 70/11/92
f 30/29/29 28/27/27 78/27/86 79/29/93
f 48/47/47 46/45/45 87/45/87 88/47/94
f 4/3/3 2/2/2 66/2/95 65/3/96
f 2/65/2 64/63/65 96/63/88 66/65/95
f 22/21/21 20/19/19 74/19/89 75/21/63
f 40/39/39 38/37/37 83/37/90 84/39/67
f 58/57/57 56/55/55 92/55/91 93/57/69
f 14/13/13 12/11/11 70/11/92 71/13/71
f 32/31/31 30/29/29 79/29/93 80/31/73
f 50/49/49 48/47/47 88/47/94 89/49/75
f 6/5/5 4/3/3 65/3/96 67/5/77
f 86/43/80 85/41/68 97/43/97
f 73/17/82 72/15/72 97/17/97
f 87/45/87 86/43/80 97/45/97
f 74/19/89 73/17/82 97/19/97
f 88/47/94 87/45/87 97/47/97
f 75/21/63 74/19/89 97/21/97
f 89/49/75 88/47/94 97/49/97
f 76/23/64 75/21/63 97/23/97
f 90/51/76 89/49/75 97/51/97
f 77/25/79 76/23/64 97/25/97
f 91/53/84 90/51/76 97/53/97
f 78/27/86 77/25/79 97/27/97
f 92/55/91 91/53/84 97/55/97
f 79/29/93 78/27/86 97/29/97
f 65/3/96 66/2/95 97/3/97
f 93/57/69 92/55/91 97/57/97
f 80/31/73 79/29/93 97/31/97
f 67/5/77 65/3/96 97/5/97
f 94/59/70 93/57/69 97/59/97
f 81/33/74 80/31/73 97/33/97
f 68/7/78 67/5/77 97/7/97
f 95/61/81 94/59/70 97/61/97
f 82/35/83 81/33/74 97/35/97
f 69/9/85 68/7/78 97/9/97
f 96/63/88 95/61/81 97/63/97
f 83/37/90 82/35/83 97/37/97
f 70/11/92 69/9/85 97/11/97
f 66/65/95 96/63/88 97/65/97
f 84/39/67 83/37/90 97/39/97
f 71/13/71 70/11/92 97/13/97
f 85/41/68 84/39/67 97/41/97
f 72/15/72 71/13/71 97/15/97
