# Blender 5.1.0
# www.blender.org
mtllib scale_arrow.mtl
o Cylinder
v 0.000000 0.000000 0.000000
v 0.000000 -0.000000 -0.500000
v 0.000000 12.000000 -0.500000
v 0.097545 -0.000000 -0.490393
v 0.097545 12.000000 -0.490393
v 0.191342 -0.000000 -0.461940
v 0.191342 12.000000 -0.461940
v 0.277785 -0.000000 -0.415735
v 0.277785 12.000000 -0.415735
v 0.353553 -0.000000 -0.353553
v 0.353553 12.000000 -0.353553
v 0.415735 -0.000000 -0.277785
v 0.415735 12.000000 -0.277785
v 0.461940 -0.000000 -0.191342
v 0.461940 12.000000 -0.191342
v 0.490393 -0.000000 -0.097545
v 0.490393 12.000000 -0.097545
v 0.500000 0.000000 0.000000
v 0.500000 12.000000 0.000000
v 0.490393 0.000000 0.097545
v 0.490393 12.000000 0.097545
v 0.461940 0.000000 0.191342
v 0.461940 12.000000 0.191342
v 0.415735 0.000000 0.277785
v 0.415735 12.000000 0.277785
v 0.353553 0.000000 0.353553
v 0.353553 12.000000 0.353553
v 0.277785 0.000000 0.415735
v 0.277785 12.000000 0.415735
v 0.191342 0.000000 0.461940
v 0.191342 12.000000 0.461940
v 0.097545 0.000000 0.490393
v 0.097545 12.000000 0.490393
v 0.000000 0.000000 0.500000
v 0.000000 12.000000 0.500000
v -0.097545 0.000000 0.490393
v -0.097545 12.000000 0.490393
v -0.191342 0.000000 0.461940
v -0.191342 12.000000 0.461940
v -0.277785 0.000000 0.415735
v -0.277785 12.000000 0.415735
v -0.353553 0.000000 0.353553
v -0.353553 12.000000 0.353553
v -0.415735 0.000000 0.277785
v -0.415735 12.000000 0.277785
v -0.461940 0.000000 0.191342
v -0.461940 12.000000 0.191342
v -0.490393 0.000000 0.097545
v -0.490393 12.000000 0.097545
v -0.500000 0.000000 0.000000
v -0.500000 12.000000 0.000000
v -0.490393 -0.000000 -0.097545
v -0.490393 12.000000 -0.097545
v -0.461940 -0.000000 -0.191342
v -0.461940 12.000000 -0.191342
v -0.415735 -0.000000 -0.277785
v -0.415735 12.000000 -0.277785
v -0.353553 -0.000000 -0.353553
v -0.353553 12.000000 -0.353553
v -0.277785 -0.000000 -0.415735
v -0.277785 12.000000 -0.415735
v -0.191342 -0.000000 -0.461940
v -0.191342 12.000000 -0.461940
v -0.097545 -0.000000 -0.490393
v -0.097545 12.000000 -0.490393
v -0.000000 12.000000 -1.000000
v 0.195090 12.000000 -0.980785
v 0.382683 12.000000 -0.923880
v 0.555570 12.000000 -0.831470
v 0.707107 12.000000 -0.707107
v 0.831470 12.000000 -0.555570
v 0.923880 12.000000 -0.382683
v 0.980785 12.000000 -0.195090
v 1.000000 12.000000 0.000000
v 0.980785 12.000000 0.195090
v 0.923880 12.000000 0.382683
v 0.831470 12.000000 0.555570
v 0.707107 12.000000 0.707107
v 0.555570 12.000000 0.831470
v 0.382683 12.000000 0.923880
v 0.195090 12.000000 0.980785
v -0.000000 12.000000 1.000000
v -0.195090 12.000000 0.980785
v -0.382683 12.000000 0.923880
v -0.555570 12.000000 0.831470
v -0.707107 12.000000 0.707107
v -0.831470 12.000000 0.555570
v -0.923880 12.000000 0.382683
v -0.980785 12.000000 0.195090
v -1.000000 12.000000 0.000000
v -0.980785 12.000000 -0.195090
v -0.923880 12.000000 -0.382683
v -0.831470 12.000000 -0.555570
v -0.707107 12.000000 -0.707107
v -0.555570 12.000000 -0.831470
v -0.382683 12.000000 -0.923880
v -0.195090 12.000000 -0.980785
v -0.000000 15.000000 -1.000000
v 0.195090 15.000000 -0.980785
v 0.382683 15.000000 -0.923880
v 0.555570 15.000000 -0.831470
v 0.707107 15.000000 -0.707107
v 0.831470 15.000000 -0.555570
v 0.923880 15.000000 -0.382683
v 0.980785 15.000000 -0.195090
v 1.000000 15.000000 0.000000
v 0.980785 15.000000 0.195090
v 0.923880 15.000000 0.382683
v 0.831470 15.000000 0.555570
v 0.707107 15.000000 0.707107
v 0.555570 15.000000 0.831470
v 0.382683 15.000000 0.923880
v 0.195090 15.000000 0.980785
v -0.000000 15.000000 1.000000
v -0.195090 15.000000 0.980785
v -0.382683 15.000000 0.923880
v -0.555570 15.000000 0.831470
v -0.707107 15.000000 0.707107
v -0.831470 15.000000 0.555570
v -0.923880 15.000000 0.382683
v -0.980785 15.000000 0.195090
v -1.000000 15.000000 0.000000
v -0.980785 15.000000 -0.195090
v -0.923880 15.000000 -0.382683
v -0.831470 15.000000 -0.555570
v -0.707107 15.000000 -0.707107
v -0.555570 15.000000 -0.831470
v -0.382683 15.000000 -0.923880
v -0.195090 15.000000 -0.980785
vn -0.0000 -1.0000 -0.0000
vn 0.0980 -0.0000 -0.9952
vn 0.2903 -0.0000 -0.9569
vn 0.4714 -0.0000 -0.8819
vn 0.6344 -0.0000 -0.7730
vn 0.7730 -0.0000 -0.6344
vn 0.8819 -0.0000 -0.4714
vn 0.9569 -0.0000 -0.2903
vn 0.9952 -0.0000 -0.0980
vn 0.9952 -0.0000 0.0980
vn 0.9569 -0.0000 0.2903
vn 0.8819 -0.0000 0.4714
vn 0.7730 -0.0000 0.6344
vn 0.6344 -0.0000 0.7730
vn 0.4714 -0.0000 0.8819
vn 0.2903 -0.0000 0.9569
vn 0.0980 -0.0000 0.9952
vn -0.0980 -0.0000 0.9952
vn -0.2903 -0.0000 0.9569
vn -0.4714 -0.0000 0.8819
vn -0.6344 -0.0000 0.7730
vn -0.7730 -0.0000 0.6344
vn -0.8819 -0.0000 0.4714
vn -0.9569 -0.0000 0.2903
vn -0.9952 -0.0000 0.0980
vn -0.9952 -0.0000 -0.0980
vn -0.9569 -0.0000 -0.2903
vn -0.8819 -0.0000 -0.4714
vn -0.7730 -0.0000 -0.6344
vn -0.6344 -0.0000 -0.7730
vn -0.4714 -0.0000 -0.8819
vn -0.2903 -0.0000 -0.9569
vn -0.0980 -0.0000 -0.9952
vn -0.0000 1.0000 -0.0000
vt 0.750000 0.250000
vt 0.750000 0.490000
vt 0.796822 0.485388
vt 1.000000 0.500000
vt 1.000000 1.000000
vt 0.968750 1.000000
vt 0.968750 0.500000
vt 0.841844 0.471731
vt 0.937500 1.000000
vt 0.937500 0.500000
vt 0.883337 0.449553
vt 0.906250 1.000000
vt 0.906250 0.500000
vt 0.919706 0.419706
vt 0.875000 1.000000
vt 0.875000 0.500000
vt 0.949553 0.383337
vt 0.843750 1.000000
vt 0.843750 0.500000
vt 0.971731 0.341844
vt 0.812500 1.000000
vt 0.812500 0.500000
vt 0.985388 0.296822
vt 0.781250 1.000000
vt 0.781250 0.500000
vt 0.990000 0.250000
vt 0.750000 1.000000
vt 0.750000 0.500000
vt 0.985388 0.203178
vt 0.718750 1.000000
vt 0.718750 0.500000
vt 0.971731 0.158156
vt 0.687500 1.000000
vt 0.687500 0.500000
vt 0.949553 0.116663
vt 0.656250 1.000000
vt 0.656250 0.500000
vt 0.919706 0.080294
vt 0.625000 1.000000
vt 0.625000 0.500000
vt 0.883337 0.050447
vt 0.593750 1.000000
vt 0.593750 0.500000
vt 0.841844 0.028269
vt 0.562500 1.000000
vt 0.562500 0.500000
vt 0.796822 0.014612
vt 0.531250 1.000000
vt 0.531250 0.500000
vt 0.750000 0.010000
vt 0.500000 1.000000
vt 0.500000 0.500000
vt 0.703178 0.014612
vt 0.468750 1.000000
vt 0.468750 0.500000
vt 0.658156 0.028269
vt 0.437500 1.000000
vt 0.437500 0.500000
vt 0.616663 0.050447
vt 0.406250 1.000000
vt 0.406250 0.500000
vt 0.580294 0.080294
vt 0.375000 1.000000
vt 0.375000 0.500000
vt 0.550447 0.116663
vt 0.343750 1.000000
vt 0.343750 0.500000
vt 0.528269 0.158156
vt 0.312500 1.000000
vt 0.312500 0.500000
vt 0.514612 0.203178
vt 0.281250 1.000000
vt 0.281250 0.500000
vt 0.510000 0.250000
vt 0.250000 1.000000
vt 0.250000 0.500000
vt 0.514612 0.296822
vt 0.218750 1.000000
vt 0.218750 0.500000
vt 0.528269 0.341844
vt 0.187500 1.000000
vt 0.187500 0.500000
vt 0.550447 0.383337
vt 0.156250 1.000000
vt 0.156250 0.500000
vt 0.580294 0.419706
vt 0.125000 1.000000
vt 0.125000 0.500000
vt 0.616663 0.449553
vt 0.093750 1.000000
vt 0.093750 0.500000
vt 0.658156 0.471731
vt 0.062500 1.000000
vt 0.062500 0.500000
vt 0.703178 0.485388
vt 0.031250 1.000000
vt 0.031250 0.500000
vt 0.000000 1.000000
vt 0.000000 0.500000
vt 0.000000 0.000000
s 0
f 1/1/1 2/2/1 4/3/1
f 2/4/2 3/5/2 5/6/2 4/7/2
f 1/1/1 4/3/1 6/8/1
f 4/7/3 5/6/3 7/9/3 6/10/3
f 1/1/1 6/8/1 8/11/1
f 6/10/4 7/9/4 9/12/4 8/13/4
f 1/1/1 8/11/1 10/14/1
f 8/13/5 9/12/5 11/15/5 10/16/5
f 1/1/1 10/14/1 12/17/1
f 10/16/6 11/15/6 13/18/6 12/19/6
f 1/1/1 12/17/1 14/20/1
f 12/19/7 13/18/7 15/21/7 14/22/7
f 1/1/1 14/20/1 16/23/1
f 14/22/8 15/21/8 17/24/8 16/25/8
f 1/1/1 16/23/1 18/26/1
f 16/25/9 17/24/9 19/27/9 18/28/9
f 1/1/1 18/26/1 20/29/1
f 18/28/10 19/27/10 21/30/10 20/31/10
f 1/1/1 20/29/1 22/32/1
f 20/31/11 21/30/11 23/33/11 22/34/11
f 1/1/1 22/32/1 24/35/1
f 22/34/12 23/33/12 25/36/12 24/37/12
f 1/1/1 24/35/1 26/38/1
f 24/37/13 25/36/13 27/39/13 26/40/13
f 1/1/1 26/38/1 28/41/1
f 26/40/14 27/39/14 29/42/14 28/43/14
f 1/1/1 28/41/1 30/44/1
f 28/43/15 29/42/15 31/45/15 30/46/15
f 1/1/1 30/44/1 32/47/1
f 30/46/16 31/45/16 33/48/16 32/49/16
f 1/1/1 32/47/1 34/50/1
f 32/49/17 33/48/17 35/51/17 34/52/17
f 1/1/1 34/50/1 36/53/1
f 34/52/18 35/51/18 37/54/18 36/55/18
f 1/1/1 36/53/1 38/56/1
f 36/55/19 37/54/19 39/57/19 38/58/19
f 1/1/1 38/56/1 40/59/1
f 38/58/20 39/57/20 41/60/20 40/61/20
f 1/1/1 40/59/1 42/62/1
f 40/61/21 41/60/21 43/63/21 42/64/21
f 1/1/1 42/62/1 44/65/1
f 42/64/22 43/63/22 45/66/22 44/67/22
f 1/1/1 44/65/1 46/68/1
f 44/67/23 45/66/23 47/69/23 46/70/23
f 1/1/1 46/68/1 48/71/1
f 46/70/24 47/69/24 49/72/24 48/73/24
f 1/1/1 48/71/1 50/74/1
f 48/73/25 49/72/25 51/75/25 50/76/25
f 1/1/1 50/74/1 52/77/1
f 50/76/26 51/75/26 53/78/26 52/79/26
f 1/1/1 52/77/1 54/80/1
f 52/79/27 53/78/27 55/81/27 54/82/27
f 1/1/1 54/80/1 56/83/1
f 54/82/28 55/81/28 57/84/28 56/85/28
f 1/1/1 56/83/1 58/86/1
f 56/85/29 57/84/29 59/87/29 58/88/29
f 1/1/1 58/86/1 60/89/1
f 58/88/30 59/87/30 61/90/30 60/91/30
f 1/1/1 60/89/1 62/92/1
f 60/91/31 61/90/31 63/93/31 62/94/31
f 1/1/1 62/92/1 64/95/1
f 62/94/32 63/93/32 65/96/32 64/97/32
f 1/1/1 64/95/1 2/2/1
f 64/97/33 65/96/33 3/98/33 2/99/33
f 49/72/1 47/69/1 88/69/1 89/72/1
f 29/42/1 27/39/1 78/39/1 79/42/1
f 9/12/1 7/9/1 68/9/1 69/12/1
f 63/93/1 61/90/1 95/90/1 96/93/1
f 43/63/1 41/60/1 85/60/1 86/63/1
f 23/33/1 21/30/1 75/30/1 76/33/1
f 57/84/1 55/81/1 92/81/1 93/84/1
f 37/54/1 35/51/1 82/51/1 83/54/1
f 17/24/1 15/21/1 72/21/1 73/24/1
f 51/75/1 49/72/1 89/72/1 90/75/1
f 31/45/1 29/42/1 79/42/1 80/45/1
f 11/15/1 9/12/1 69/12/1 70/15/1
f 5/6/1 3/5/1 66/5/1 67/6/1
f 65/96/1 63/93/1 96/93/1 97/96/1
f 45/66/1 43/63/1 86/63/1 87/66/1
f 25/36/1 23/33/1 76/33/1 77/36/1
f 59/87/1 57/84/1 93/84/1 94/87/1
f 39/57/1 37/54/1 83/54/1 84/57/1
f 19/27/1 17/24/1 73/24/1 74/27/1
f 53/78/1 51/75/1 90/75/1 91/78/1
f 3/98/1 65/96/1 97/96/1 66/98/1
f 33/48/1 31/45/1 80/45/1 81/48/1
f 13/18/1 11/15/1 70/15/1 71/18/1
f 47/69/1 45/66/1 87/66/1 88/69/1
f 27/39/1 25/36/1 77/36/1 78/39/1
f 7/9/1 5/6/1 67/6/1 68/9/1
f 61/90/1 59/87/1 94/87/1 95/90/1
f 41/60/1 39/57/1 84/57/1 85/60/1
f 21/30/1 19/27/1 74/27/1 75/30/1
f 55/81/1 53/78/1 91/78/1 92/81/1
f 35/51/1 33/48/1 81/48/1 82/51/1
f 15/21/1 13/18/1 71/18/1 72/21/1
f 76/33/11 75/30/11 107/30/11 108/33/11
f 88/69/23 87/66/23 119/66/23 120/69/23
f 87/66/22 86/63/22 118/63/22 119/66/22
f 89/72/24 88/69/24 120/69/24 121/72/24
f 73/24/8 72/21/8 104/21/8 105/24/8
f 86/63/21 85/60/21 117/60/21 118/63/21
f 72/21/7 71/18/7 103/18/7 104/21/7
f 85/60/20 84/57/20 116/57/20 117/60/20
f 66/98/33 97/96/33 129/96/33 98/98/33
f 71/18/6 70/15/6 102/15/6 103/18/6
f 84/57/19 83/54/19 115/54/19 116/57/19
f 97/96/32 96/93/32 128/93/32 129/96/32
f 70/15/5 69/12/5 101/12/5 102/15/5
f 83/54/18 82/51/18 114/51/18 115/54/18
f 96/93/31 95/90/31 127/90/31 128/93/31
f 69/12/4 68/9/4 100/9/4 101/12/4
f 82/51/17 81/48/17 113/48/17 114/51/17
f 95/90/30 94/87/30 126/87/30 127/90/30
f 68/9/3 67/6/3 99/6/3 100/9/3
f 81/48/16 80/45/16 112/45/16 113/48/16
f 74/27/9 73/24/9 105/24/9 106/27/9
f 94/87/29 93/84/29 125/84/29 126/87/29
f 67/6/2 66/5/2 98/5/2 99/6/2
f 80/45/15 79/42/15 111/42/15 112/45/15
f 93/84/28 92/81/28 124/81/28 125/84/28
f 79/42/14 78/39/14 110/39/14 111/42/14
f 92/81/27 91/78/27 123/78/27 124/81/27
f 78/39/13 77/36/13 109/36/13 110/39/13
f 77/36/12 76/33/12 108/33/12 109/36/12
f 90/75/25 89/72/25 121/72/25 122/75/25
f 75/30/10 74/27/10 106/27/10 107/30/10
f 91/78/26 90/75/26 122/75/26 123/78/26
f 99/100/34 98/100/34 129/100/34
f 100/100/34 99/100/34 129/100/34
f 100/100/34 129/100/34 128/100/34
f 101/100/34 100/100/34 128/100/34
f 101/100/34 128/100/34 127/100/34
f 102/100/34 101/100/34 127/100/34
f 108/100/34 107/100/34 122/100/34
f 127/100/34 126/100/34 125/100/34
f 103/100/34 127/100/34 125/100/34
f 104/100/34 103/100/34 125/100/34
f 104/100/34 125/100/34 124/100/34
f 105/100/34 104/100/34 124/100/34
f 105/100/34 124/100/34 123/100/34
f 106/100/34 105/100/34 123/100/34
f 106/100/34 123/100/34 122/100/34
f 107/100/34 106/100/34 122/100/34
f 121/100/34 108/100/34 122/100/34
f 112/100/34 111/100/34 110/100/34
f 108/100/34 121/100/34 120/100/34
f 109/100/34 108/100/34 120/100/34
f 115/100/34 113/100/34 112/100/34
f 120/100/34 119/100/34 117/100/34
f 118/100/34 117/100/34 119/100/34
f 103/100/34 102/100/34 127/100/34
f 120/100/34 117/100/34 112/100/34
f 110/100/34 109/100/34 120/100/34
f 112/100/34 117/100/34 116/100/34
f 116/100/34 115/100/34 112/100/34
f 114/100/34 113/100/34 115/100/34
f 112/100/34 110/100/34 120/100/34
