# Blender 5.0.1
# www.blender.org
mtllib icon_space.mtl
o Plane
v -0.500000 0.375000 0.000000
v -0.375000 0.500000 0.000000
v -0.375000 -0.500000 0.000000
v -0.500000 -0.375000 0.000000
v 0.500000 0.375000 0.000000
v 0.375000 0.500000 0.000000
v 0.500000 -0.375000 0.000000
v 0.375000 -0.500000 0.000000
vn -0.0000 -0.0000 1.0000
vt 0.000000 0.125000
vt 0.125000 0.000000
vt 0.875000 0.000000
vt 1.000000 0.125000
vt 1.000000 0.875000
vt 0.875000 1.000000
vt 0.125000 1.000000
vt 0.000000 0.875000
s 0
f 2/1/1 1/2/1 4/3/1 3/4/1 8/5/1 7/6/1 5/7/1 6/8/1
